<svg version="1.1" id="Layer_1" xmlns="http://www.w3.org/2000/svg" xmlns:xlink="http://www.w3.org/1999/xlink" x="0px" y="0px"
	 width="100%" viewBox="0 0 1920 960" enable-background="new 0 0 1920 960" xml:space="preserve">
<path fill="#FFFFFF" opacity="1.000000" stroke="none" 
	d="
M1815.000000,961.000000 
	C1210.000122,961.000000 605.500244,961.000000 1.000243,961.000000 
	C1.000162,641.000183 1.000162,321.000336 1.000081,1.000372 
	C640.999695,1.000248 1280.999390,1.000248 1920.999268,1.000124 
	C1920.999512,320.999664 1920.999512,640.999329 1920.999756,960.999512 
	C1885.833374,961.000000 1850.666626,961.000000 1815.000000,961.000000 
M1652.739136,552.597656 
	C1656.952881,551.320679 1662.028809,552.388550 1666.031616,547.705322 
	C1663.197876,546.333496 1660.966309,545.253174 1658.386353,544.004150 
	C1661.109009,540.022522 1663.807617,536.445435 1666.093018,532.621460 
	C1668.068726,529.315552 1670.563843,528.164001 1674.475952,527.788818 
	C1683.215942,526.950745 1691.900391,525.372437 1700.528931,523.692078 
	C1702.021851,523.401306 1703.809570,521.275391 1704.149536,519.712036 
	C1704.342529,518.824585 1702.010498,517.139221 1700.558472,516.219727 
	C1699.337891,515.446777 1697.773682,515.057007 1696.311890,514.851135 
	C1688.739380,513.784790 1681.143799,512.880981 1673.572998,511.802307 
	C1671.856323,511.557678 1669.516602,511.377533 1668.645996,510.252625 
	C1665.007202,505.550659 1661.818970,500.500183 1658.475098,495.591431 
	C1661.185059,494.305298 1663.463013,493.224213 1665.740967,492.143158 
	C1665.748413,491.551758 1665.755859,490.960358 1665.763306,490.368958 
	C1662.905273,489.507782 1660.034302,488.686279 1657.193604,487.771057 
	C1655.373901,487.184753 1652.980957,486.973572 1651.922241,485.699219 
	C1648.996460,482.177704 1646.636108,478.186310 1644.044800,474.369690 
	C1646.471313,472.996063 1648.471436,471.863831 1651.356201,470.230804 
	C1649.217529,469.012817 1648.126831,467.854248 1647.038940,467.856903 
	C1638.205933,467.878326 1634.803101,461.209229 1630.877197,455.107910 
	C1629.345947,452.728149 1627.508301,450.527496 1626.152466,448.057373 
	C1624.266602,444.621460 1621.681152,444.004883 1617.621338,445.589111 
	C1623.794800,467.244659 1629.966187,488.892639 1636.181152,510.693695 
	C1624.631226,511.456757 1613.706177,512.283142 1602.765991,512.769104 
	C1601.396118,512.829956 1599.529297,511.398193 1598.606445,510.136139 
	C1594.775757,504.896790 1591.051636,499.561371 1587.622559,494.053131 
	C1585.501831,490.646576 1583.025757,490.392548 1579.286255,491.916046 
	C1581.515503,499.857635 1583.690552,507.605774 1585.773926,515.027222 
	C1583.016724,516.533386 1580.795776,517.746704 1577.560059,519.514221 
	C1580.957397,521.437683 1583.296265,522.761902 1585.718628,524.133362 
	C1583.493042,531.857178 1581.304077,539.453674 1579.064697,547.225098 
	C1582.919922,548.654663 1585.456055,548.313660 1587.505981,544.913086 
	C1589.908203,540.928284 1593.133667,537.415405 1595.326538,533.334778 
	C1598.369995,527.671387 1602.199341,525.713257 1608.846802,526.749268 
	C1617.653198,528.121765 1626.686157,528.041321 1636.180298,528.619324 
	C1629.680908,550.698120 1623.311401,572.335571 1616.927612,594.021545 
	C1622.994507,594.995178 1622.998047,594.997620 1625.922974,590.779175 
	C1629.243896,585.989624 1632.382812,581.058350 1635.968506,576.476318 
	C1637.225830,574.869507 1639.461060,573.837952 1641.448853,573.038269 
	C1644.244019,571.913757 1647.224731,571.250305 1650.126099,570.389648 
	C1650.142334,569.872253 1650.158569,569.354858 1650.174805,568.837463 
	C1648.120361,567.706482 1646.066040,566.575439 1643.636719,565.238098 
	C1646.436157,561.216125 1649.268188,557.147522 1652.739136,552.597656 
M224.858810,431.778076 
	C235.987900,449.274872 247.116989,466.771698 258.500458,484.668427 
	C259.687958,482.914825 260.547089,481.710815 261.340393,480.464874 
	C271.980652,463.754517 282.571899,447.012787 293.260132,430.333160 
	C299.552429,420.513641 301.245575,409.865143 298.396606,398.744171 
	C294.107452,382.001526 283.113708,371.454346 266.250092,368.272644 
	C248.949524,365.008453 234.402237,370.939026 224.606140,385.649109 
	C214.744415,400.457764 214.793198,415.967041 224.858810,431.778076 
M256.091187,506.414368 
	C245.980881,509.766327 242.300461,519.878784 248.442902,527.429016 
	C252.222397,532.074707 258.851074,533.566467 264.197662,530.974609 
	C269.819153,528.249451 272.680420,522.090881 271.151123,516.008057 
	C269.557495,509.669464 264.480743,506.200958 256.091187,506.414368 
M1475.193604,520.971741 
	C1479.454834,521.232422 1483.714966,521.601501 1487.978394,521.643433 
	C1488.660400,521.650085 1489.357056,520.191956 1490.046875,519.411011 
	C1489.340942,518.839355 1488.656738,517.807861 1487.925659,517.773621 
	C1484.267212,517.602051 1480.585815,517.544617 1476.938843,517.809448 
	C1476.176636,517.864807 1475.525269,519.448303 1475.193604,520.971741 
M1459.532715,517.670654 
	C1456.037354,517.680969 1452.537354,517.597900 1449.050537,517.776306 
	C1448.306641,517.814331 1447.611450,518.802856 1446.893921,519.353577 
	C1447.557617,520.151428 1448.183472,521.597839 1448.891113,521.638916 
	C1452.704224,521.860413 1456.634399,522.248291 1460.331665,521.554016 
	C1463.029297,521.047485 1463.255371,518.992249 1459.532715,517.670654 
M1285.762207,517.668030 
	C1284.932739,517.667969 1284.019653,517.445007 1283.292725,517.717957 
	C1282.076782,518.174500 1280.979858,518.947571 1279.832764,519.587402 
	C1280.908936,520.325928 1281.935059,521.593567 1283.071045,521.701294 
	C1286.194946,521.997498 1289.380615,521.982788 1292.506958,521.702515 
	C1293.443237,521.618652 1294.265015,520.255737 1295.139160,519.478760 
	C1294.293945,518.877136 1293.503052,517.880066 1292.592529,517.755432 
	C1290.638306,517.487732 1288.622559,517.670166 1285.762207,517.668030 
M1085.010742,520.293152 
	C1087.768311,520.798218 1090.535522,521.738098 1093.280396,521.676270 
	C1095.646240,521.622925 1099.087646,523.642395 1100.231689,519.427917 
	C1097.904297,518.841248 1095.561890,517.734619 1093.253418,517.801331 
	C1090.460083,517.882141 1087.695557,518.955750 1085.010742,520.293152 
M960.617188,518.318359 
	C956.550293,518.105469 952.482666,517.759888 948.417236,517.783630 
	C947.530273,517.788757 946.651001,519.113098 945.768188,519.829834 
	C946.583679,520.485046 947.366394,521.651062 948.220337,521.705811 
	C951.660950,521.926270 955.141479,521.995361 958.565674,521.675476 
	C959.445740,521.593323 960.174011,519.885864 960.617188,518.318359 
M783.901428,517.657227 
	C782.905273,517.671509 781.791809,517.412659 780.945374,517.775879 
	C780.075562,518.149170 779.466492,519.129883 778.743286,519.844788 
	C779.412537,520.479431 780.057739,521.630554 780.754883,521.662964 
	C784.564331,521.840027 788.391235,521.837646 792.199768,521.647522 
	C792.853699,521.614868 793.447571,520.379456 794.069092,519.699585 
	C793.292236,519.028931 792.572754,517.881104 791.727417,517.779480 
	C789.434937,517.503845 787.089050,517.671936 783.901428,517.657227 
M594.126648,521.813538 
	C594.624695,521.813660 595.232361,521.998596 595.600708,521.780090 
	C596.819641,521.057190 597.952332,520.188721 599.118103,519.376099 
	C597.913574,518.807983 596.744934,517.869141 595.497131,517.748474 
	C592.865417,517.493958 590.164429,517.440857 587.547913,517.762024 
	C586.249084,517.921387 585.074219,519.091125 583.843262,519.803772 
	C584.987793,520.471436 586.069214,521.515259 587.291382,521.720398 
	C589.229248,522.045593 591.261230,521.809998 594.126648,521.813538 
M758.505859,521.808044 
	C759.833435,521.808594 761.251038,522.102905 762.464355,521.730896 
	C763.803711,521.320312 764.955688,520.298645 766.189331,519.543152 
	C765.032776,518.920227 763.936218,517.991882 762.704834,517.750305 
	C761.106445,517.436707 759.356750,517.429749 757.751831,517.724487 
	C755.412781,518.154114 753.144775,518.970032 750.846436,519.621277 
	C753.104675,520.350281 755.362854,521.079285 758.505859,521.808044 
M923.779236,517.668579 
	C922.949402,517.670166 922.032898,517.446106 921.309265,517.724060 
	C920.096130,518.190063 919.005920,518.976013 917.864014,519.627380 
	C918.967651,520.357056 920.023010,521.608276 921.184265,521.715759 
	C924.310181,522.005005 927.497375,521.980530 930.624573,521.692810 
	C931.541077,521.608521 932.338074,520.225830 933.189819,519.438171 
	C932.333130,518.850037 931.528137,517.876526 930.609070,517.753174 
	C928.652527,517.490845 926.636780,517.670044 923.779236,517.668579 
M1120.485352,517.673828 
	C1119.158569,517.671082 1117.751099,517.388794 1116.526611,517.741333 
	C1115.199951,518.123291 1114.043701,519.097107 1112.812988,519.812805 
	C1114.129272,520.477905 1115.383667,521.405884 1116.779175,521.734619 
	C1118.193359,522.067810 1119.797485,522.050781 1121.228638,521.754150 
	C1123.561523,521.270508 1125.821655,520.434937 1128.112427,519.747864 
	C1125.860229,519.057678 1123.608032,518.367493 1120.485352,517.673828 
M900.100525,517.667542 
	C897.607544,517.674988 895.099548,517.528503 892.629517,517.770325 
	C891.718018,517.859558 890.896057,518.863586 890.033264,519.450439 
	C890.899170,520.236084 891.702759,521.597656 892.642639,521.699158 
	C895.435364,522.001038 898.311401,522.049622 901.095154,521.709229 
	C902.587280,521.526794 903.956665,520.341431 905.381470,519.608643 
	C903.902771,518.961792 902.424011,518.315002 900.100525,517.667542 
M807.689331,521.445129 
	C811.501709,521.565308 815.319397,521.835205 819.122864,521.701843 
	C820.089417,521.667969 821.011108,520.352234 821.953430,519.625549 
	C820.963257,518.973694 820.010864,517.840881 818.976013,517.759705 
	C815.829285,517.513000 812.650024,517.630920 809.484863,517.688110 
	C807.305054,517.727478 805.723572,518.334717 807.689331,521.445129 
M423.616669,517.673035 
	C422.289581,517.669983 420.891083,517.406067 419.657166,517.743652 
	C418.604706,518.031616 417.741425,519.010986 416.794464,519.684509 
	C417.740784,520.390808 418.602325,521.481689 419.653290,521.713440 
	C421.236206,522.062500 422.992340,522.043396 424.601227,521.761108 
	C427.131256,521.317261 429.600006,520.524170 432.094696,519.878967 
	C430.575500,515.641113 426.979614,518.565430 423.616669,517.673035 
M392.268555,521.811340 
	C395.426727,521.804443 398.595001,521.934204 401.736542,521.702271 
	C402.609009,521.637817 403.402252,520.500427 404.231873,519.855286 
	C403.349457,519.126770 402.511169,517.844238 401.576660,517.769775 
	C398.272614,517.506531 394.928497,517.534851 391.615875,517.729980 
	C390.709137,517.783447 389.859528,518.807007 388.983704,519.385315 
	C389.814911,520.192444 390.646118,520.999573 392.268555,521.811340 
M283.717499,521.808289 
	C286.040955,521.797363 288.389038,521.975281 290.674957,521.676758 
	C291.517303,521.566833 292.212921,520.333130 292.975464,519.612000 
	C292.321198,518.981384 291.691376,517.837891 291.008575,517.805237 
	C287.200226,517.623596 283.374817,517.617981 279.566132,517.791504 
	C278.874634,517.823059 277.721191,518.954224 277.708313,519.596375 
	C277.694427,520.288818 278.644775,521.351746 279.400665,521.623169 
	C280.437500,521.995483 281.687286,521.774719 283.717499,521.808289 
M1420.118164,517.960938 
	C1417.677368,520.419128 1419.248657,521.544495 1421.656128,521.738892 
	C1424.961548,522.005615 1428.318237,521.970276 1431.623169,521.699402 
	C1432.577148,521.621155 1433.428345,520.289185 1434.326660,519.532043 
	C1433.322144,518.910645 1432.345703,517.815491 1431.308105,517.754395 
	C1427.828857,517.549316 1424.328003,517.713318 1420.118164,517.960938 
M1322.921265,518.948792 
	C1321.442017,518.521851 1319.849365,517.516479 1318.505371,517.779907 
	C1314.906982,518.485168 1308.191406,515.506287 1308.319336,519.565247 
	C1308.466064,524.218018 1315.094116,521.058105 1318.811401,521.660889 
	C1320.082275,521.866882 1321.630493,520.362915 1322.921265,518.948792 
M372.787994,517.663940 
	C369.962372,517.664185 367.114929,517.461792 364.321594,517.762268 
	C363.173248,517.885803 362.141449,519.092529 361.056641,519.806519 
	C362.048340,520.475281 362.999847,521.635620 364.039337,521.720642 
	C367.176514,521.977356 370.361816,521.983215 373.497955,521.721741 
	C374.512878,521.637146 375.433746,520.424011 376.397614,519.727051 
	C375.462433,519.041016 374.527252,518.354919 372.787994,517.663940 
M1263.002686,521.807251 
	C1264.436523,521.085938 1265.870483,520.364685 1267.304321,519.643433 
	C1265.840210,518.985291 1264.426880,517.970032 1262.900024,517.752808 
	C1260.623169,517.429016 1258.236694,517.446106 1255.954346,517.750183 
	C1254.567139,517.935059 1253.288330,518.932800 1251.960815,519.565369 
	C1253.196777,520.313232 1254.359741,521.482361 1255.685425,521.712280 
	C1257.779419,522.075439 1259.982666,521.808289 1263.002686,521.807251 
M1229.730225,517.664978 
	C1228.901733,517.668396 1227.952148,517.413818 1227.272095,517.733215 
	C1226.133301,518.267944 1225.166504,519.168823 1224.127319,519.915527 
	C1225.149902,520.541931 1226.139648,521.633545 1227.201050,521.708069 
	C1230.497803,521.939758 1233.831665,521.923279 1237.128052,521.684265 
	C1237.960327,521.623840 1238.706299,520.373962 1239.491943,519.670715 
	C1238.686768,519.012390 1237.942505,517.904175 1237.064331,517.785156 
	C1234.947876,517.498352 1232.768799,517.674561 1229.730225,517.664978 
M1152.728638,521.810242 
	C1153.816772,521.076538 1154.904785,520.342896 1155.992798,519.609192 
	C1154.841553,518.962646 1153.727905,517.856995 1152.531616,517.758606 
	C1149.398315,517.500916 1146.218872,517.547852 1143.080200,517.777832 
	C1142.217041,517.841064 1141.432373,518.974609 1140.611694,519.617004 
	C1141.386230,520.336914 1142.112183,521.604309 1142.944092,521.678162 
	C1145.910522,521.941528 1148.912964,521.799255 1152.728638,521.810242 
M445.898071,517.875977 
	C443.397797,520.115723 444.593079,521.472595 447.158844,521.720215 
	C450.454285,522.038330 453.815796,521.960205 457.122040,521.705505 
	C458.125305,521.628174 459.039948,520.401062 459.995209,519.700684 
	C459.039856,519.026489 458.118927,517.837830 457.122955,517.771240 
	C453.646515,517.538513 450.144135,517.693787 445.898071,517.875977 
M730.552246,517.665894 
	C728.895325,517.667969 727.200989,517.462524 725.595703,517.751465 
	C724.662231,517.919556 723.871521,518.880737 723.016602,519.484985 
	C723.887451,520.259460 724.668152,521.524048 725.648315,521.704407 
	C727.571533,522.058228 729.657959,522.091003 731.580627,521.735718 
	C733.883850,521.310181 736.086548,520.340332 738.332764,519.606201 
	C736.029114,518.959900 733.725464,518.313599 730.552246,517.665894 
M613.527954,521.767029 
	C617.189026,521.774658 620.856873,521.904114 624.506226,521.700806 
	C625.373535,521.652466 626.178833,520.490356 627.012634,519.840576 
	C626.283203,519.128784 625.588684,517.849365 624.818298,517.801819 
	C621.170715,517.576965 617.480774,517.443298 613.848694,517.762878 
	C611.253174,517.991333 610.948792,519.594910 613.527954,521.767029 
M528.307495,518.837341 
	C528.356262,519.457581 528.369568,520.615051 528.458740,520.620911 
	C533.121277,520.928284 537.789490,521.177002 542.460266,521.266663 
	C542.757202,521.272400 543.518616,519.711426 543.294495,519.320740 
	C542.881775,518.601379 541.894531,517.755066 541.150391,517.758423 
	C537.035706,517.777039 532.922119,518.036133 528.307495,518.837341 
M560.167175,517.671021 
	C558.769165,518.393066 557.371155,519.115112 555.973145,519.837158 
	C557.298462,520.494324 558.579102,521.573914 559.958496,521.719849 
	C562.748840,522.015015 565.610718,521.984375 568.405029,521.705933 
	C569.422852,521.604492 570.332214,520.415222 571.291077,519.722168 
	C570.353027,519.039429 569.470215,517.885132 568.465942,517.767517 
	C566.009644,517.479675 563.497192,517.670837 560.167175,517.671021 
M678.881897,517.668152 
	C675.891785,517.672913 672.891296,517.539795 669.917908,517.765381 
	C669.010315,517.834290 668.177490,518.889221 667.310364,519.492615 
	C668.200806,520.259277 669.042847,521.608582 669.990356,521.687134 
	C673.289978,521.960815 676.633606,521.918213 679.943420,521.716309 
	C680.879761,521.659241 681.757751,520.647461 682.662476,520.073486 
	C681.678833,519.272705 680.695129,518.471924 678.881897,517.668152 
M1540.185791,517.663025 
	C1537.693848,517.672974 1535.182861,517.511108 1532.720459,517.786011 
	C1531.857178,517.882324 1531.113647,519.051697 1530.315430,519.731018 
	C1531.129028,520.413391 1531.895264,521.603394 1532.764771,521.684509 
	C1535.565430,521.945557 1538.427734,522.018738 1541.218872,521.720947 
	C1542.778931,521.554443 1544.245117,520.510376 1545.753662,519.861755 
	C1544.183716,519.127625 1542.613892,518.393433 1540.185791,517.663025 
M1507.004883,517.669006 
	C1505.513306,518.309875 1504.021606,518.950745 1502.529907,519.591614 
	C1503.952271,520.330933 1505.318481,521.527771 1506.809082,521.710571 
	C1509.584717,522.051086 1512.453491,521.992859 1515.239136,521.691223 
	C1516.189209,521.588318 1517.006104,520.255920 1517.883911,519.485291 
	C1517.027832,518.886536 1516.214233,517.861572 1515.307373,517.771118 
	C1512.844727,517.525269 1510.342529,517.675354 1507.004883,517.669006 
M308.221375,521.808899 
	C311.545685,521.805664 314.884277,521.970581 318.185059,521.690308 
	C319.102478,521.612366 319.907898,520.215027 320.764709,519.422974 
	C319.889801,518.840881 319.042053,517.812012 318.135040,517.756775 
	C314.822998,517.555054 311.484253,517.560425 308.171204,517.754272 
	C307.242462,517.808655 306.367218,518.777649 305.467468,519.327148 
	C306.114441,520.137756 306.761383,520.948364 308.221375,521.808899 
M348.440308,518.889404 
	C343.937622,518.517395 339.437134,518.085632 334.926880,517.919434 
	C334.651276,517.909302 333.673218,520.519897 334.091675,521.024963 
	C335.714600,522.984070 346.644257,521.760620 348.440308,518.889404 
M707.666504,517.667725 
	C704.342834,517.673828 701.010742,517.552612 697.700989,517.770691 
	C696.814880,517.829041 695.996948,518.922668 695.147766,519.541077 
	C695.887207,520.278564 696.589539,521.603638 697.372437,521.653076 
	C701.013306,521.883240 704.681030,521.856445 708.327942,521.683960 
	C709.073120,521.648743 709.769958,520.592285 710.489075,520.006531 
	C709.816223,519.234741 709.143311,518.462952 707.666504,517.667725 
M1404.567261,521.753479 
	C1405.194946,520.932129 1405.822632,520.110718 1406.450439,519.289429 
	C1405.542236,518.750122 1404.657227,517.798340 1403.721802,517.745911 
	C1400.411255,517.560486 1397.075562,517.558228 1393.767578,517.769897 
	C1392.866577,517.827576 1392.029297,518.879944 1391.162720,519.475830 
	C1392.038208,520.245056 1392.864380,521.599060 1393.798218,521.677917 
	C1397.096313,521.956482 1400.431519,521.798401 1404.567261,521.753479 
M1363.973999,518.244263 
	C1362.345947,520.775146 1363.925293,521.638794 1366.041748,521.750183 
	C1369.359253,521.924683 1372.706543,521.957886 1376.011230,521.686279 
	C1376.963501,521.608032 1377.812988,520.278015 1378.709595,519.521973 
	C1377.684326,518.905090 1376.681274,517.806641 1375.629883,517.758484 
	C1371.986206,517.591614 1368.325806,517.789917 1363.973999,518.244263 
M1341.705811,517.666687 
	C1340.709839,517.667236 1339.611328,517.400452 1338.742920,517.733582 
	C1337.557373,518.188354 1336.546875,519.099976 1335.461426,519.815796 
	C1336.630127,520.479614 1337.755493,521.600525 1338.976196,521.716370 
	C1341.937500,521.997253 1344.958862,521.984375 1347.922485,521.717529 
	C1348.958984,521.624268 1349.897461,520.441406 1350.880737,519.756104 
	C1349.939209,519.067932 1349.074097,517.977417 1348.039307,517.781311 
	C1346.275146,517.447083 1344.404541,517.674683 1341.705811,517.666687 
M1203.549072,517.667419 
	C1202.221558,517.667419 1200.817139,517.395935 1199.588257,517.744019 
	C1198.374634,518.087769 1197.338623,519.057922 1196.224609,519.753235 
	C1197.381714,520.439392 1198.489746,521.589417 1199.705811,521.718018 
	C1202.495483,522.012939 1205.357666,522.004517 1208.149536,521.718872 
	C1209.371216,521.593811 1210.492676,520.488647 1211.659668,519.828552 
	C1210.413086,519.108704 1209.236572,518.174255 1207.897705,517.737549 
	C1206.847656,517.395020 1205.596924,517.668335 1203.549072,517.667419 
M835.568542,521.516174 
	C839.382812,521.614075 843.203369,521.862000 847.007019,521.704224 
	C847.957397,521.664917 848.853577,520.318787 849.774658,519.573242 
	C848.928345,518.947021 848.111389,517.833618 847.230530,517.780457 
	C843.749146,517.570618 840.230347,517.511719 836.768250,517.843750 
	C836.065308,517.911133 835.548279,519.917664 835.568542,521.516174 
M650.155945,521.810120 
	C651.730042,521.058533 653.304077,520.306885 654.878174,519.555298 
	C653.373901,518.922180 651.909912,517.902466 650.356567,517.740601 
	C647.567139,517.450012 644.710449,517.523193 641.911255,517.773132 
	C641.033997,517.851440 640.251038,518.985168 639.424866,519.635803 
	C640.213684,520.347595 640.941956,521.572144 641.802795,521.673828 
	C644.258606,521.963684 646.768433,521.796692 650.155945,521.810120 
M873.846008,517.660828 
	C870.856873,517.668884 867.851318,517.503296 864.888184,517.785034 
	C863.931396,517.875977 863.086487,519.142456 862.190430,519.871277 
	C863.043030,520.507812 863.861816,521.632141 864.754211,521.693848 
	C868.060120,521.922485 871.402832,521.964661 874.703735,521.711914 
	C875.711792,521.634705 876.629944,520.384949 877.589233,519.672180 
	C876.614136,519.004211 875.639099,518.336182 873.846008,517.660828 
M1038.342041,521.808167 
	C1039.336426,521.808167 1040.437256,522.080200 1041.299438,521.742615 
	C1042.511475,521.268127 1043.546265,520.341003 1044.656860,519.607483 
	C1043.493408,518.960815 1042.395508,518.062927 1041.148193,517.738342 
	C1039.906494,517.415283 1038.478516,517.471008 1037.196777,517.708801 
	C1034.506470,518.208069 1031.858276,518.935608 1029.192871,519.569397 
	C1030.988403,523.823730 1034.712524,520.976379 1038.342041,521.808167 
M1014.603271,517.689087 
	C1010.944641,517.690430 1007.278625,517.569214 1003.633362,517.790771 
	C1002.852783,517.838135 1002.147644,519.127625 1001.407715,519.844849 
	C1002.086914,520.479980 1002.743164,521.632812 1003.449036,521.664001 
	C1007.262085,521.832520 1011.136230,522.084717 1014.890503,521.577271 
	C1017.232056,521.260742 1017.691650,519.433777 1014.603271,517.689087 
M515.518921,520.412231 
	C515.311523,519.667419 515.138123,518.285583 514.891541,518.272461 
	C510.447906,518.034729 505.994995,517.906982 501.545502,517.941406 
	C501.109772,517.944763 500.194275,519.352539 500.358612,519.774841 
	C500.663483,520.558289 501.608185,521.652222 502.274963,521.644348 
	C506.535675,521.594055 510.793213,521.278687 515.518921,520.412231 
M1179.062988,517.675476 
	C1176.406250,517.673645 1173.736694,517.522644 1171.099854,517.750610 
	C1170.175049,517.830505 1169.330688,518.841553 1168.449585,519.427429 
	C1169.312622,520.215271 1170.116089,521.587585 1171.049683,521.682678 
	C1174.008423,521.984192 1177.038940,522.028931 1179.994019,521.718628 
	C1181.341187,521.577148 1182.576416,520.370605 1183.862427,519.647156 
	C1182.548950,518.992249 1181.235596,518.337341 1179.062988,517.675476 
M1072.288574,520.367981 
	C1072.077515,519.623230 1071.896362,518.239868 1071.651123,518.228455 
	C1067.213135,518.021179 1062.766724,517.926331 1058.324585,517.988525 
	C1057.907227,517.994446 1057.030518,519.407410 1057.201660,519.825073 
	C1057.519409,520.600525 1058.461914,521.672668 1059.129150,521.662109 
	C1063.384033,521.595276 1067.634644,521.266724 1072.288574,520.367981 
M988.241821,518.203552 
	C984.128906,518.033997 980.015076,517.754700 975.903992,517.791870 
	C975.126343,517.798828 974.359985,519.062988 973.588379,519.747009 
	C974.394958,520.426392 975.167603,521.637939 976.014099,521.692078 
	C979.485657,521.914001 982.997437,521.972290 986.452820,521.647583 
	C987.304138,521.567566 987.998535,519.817383 988.241821,518.203552 
M474.428955,521.739685 
	C478.086700,521.752380 481.751526,521.890930 485.396912,521.684570 
	C486.250214,521.636353 487.037476,520.419983 487.855103,519.741028 
	C487.070587,519.064331 486.317322,517.851074 485.496185,517.803284 
	C481.849884,517.591064 478.154755,517.431396 474.535522,517.809692 
	C471.998657,518.074951 471.658875,519.721558 474.428955,521.739685 
M1562.645264,517.666260 
	C1561.663452,517.711548 1560.548828,517.486694 1559.740479,517.884521 
	C1559.050293,518.224121 1558.712036,519.278809 1558.218018,520.017212 
	C1559.260620,520.612915 1560.328125,521.743652 1561.340576,521.696228 
	C1563.649048,521.588013 1565.930420,520.902222 1568.222778,520.451050 
	C1568.066162,519.701355 1568.075439,518.405396 1567.723633,518.298584 
	C1566.354126,517.882690 1564.870117,517.844116 1562.645264,517.666260 
z"/>
<path fill="#1D1D1D" opacity="1.000000" stroke="none" 
	d="
M1652.419678,552.838257 
	C1649.268188,557.147522 1646.436157,561.216125 1643.636719,565.238098 
	C1646.066040,566.575439 1648.120361,567.706482 1650.174805,568.837463 
	C1650.158569,569.354858 1650.142334,569.872253 1650.126099,570.389648 
	C1647.224731,571.250305 1644.244019,571.913757 1641.448853,573.038269 
	C1639.461060,573.837952 1637.225830,574.869507 1635.968506,576.476318 
	C1632.382812,581.058350 1629.243896,585.989624 1625.922974,590.779175 
	C1622.998047,594.997620 1622.994507,594.995178 1616.927612,594.021545 
	C1623.311401,572.335571 1629.680908,550.698120 1636.180298,528.619324 
	C1626.686157,528.041321 1617.653198,528.121765 1608.846802,526.749268 
	C1602.199341,525.713257 1598.369995,527.671387 1595.326538,533.334778 
	C1593.133667,537.415405 1589.908203,540.928284 1587.505981,544.913086 
	C1585.456055,548.313660 1582.919922,548.654663 1579.064697,547.225098 
	C1581.304077,539.453674 1583.493042,531.857178 1585.718628,524.133362 
	C1583.296265,522.761902 1580.957397,521.437683 1577.560059,519.514221 
	C1580.795776,517.746704 1583.016724,516.533386 1585.773926,515.027222 
	C1583.690552,507.605774 1581.515503,499.857635 1579.286255,491.916046 
	C1583.025757,490.392548 1585.501831,490.646576 1587.622559,494.053131 
	C1591.051636,499.561371 1594.775757,504.896790 1598.606445,510.136139 
	C1599.529297,511.398193 1601.396118,512.829956 1602.765991,512.769104 
	C1613.706177,512.283142 1624.631226,511.456757 1636.181152,510.693695 
	C1629.966187,488.892639 1623.794800,467.244659 1617.621338,445.589111 
	C1621.681152,444.004883 1624.266602,444.621460 1626.152466,448.057373 
	C1627.508301,450.527496 1629.345947,452.728149 1630.877197,455.107910 
	C1634.803101,461.209229 1638.205933,467.878326 1647.038940,467.856903 
	C1648.126831,467.854248 1649.217529,469.012817 1651.356201,470.230804 
	C1648.471436,471.863831 1646.471313,472.996063 1644.044800,474.369690 
	C1646.636108,478.186310 1648.996460,482.177704 1651.922241,485.699219 
	C1652.980957,486.973572 1655.373901,487.184753 1657.193604,487.771057 
	C1660.034302,488.686279 1662.905273,489.507782 1665.763306,490.368958 
	C1665.755859,490.960358 1665.748413,491.551758 1665.740967,492.143158 
	C1663.463013,493.224213 1661.185059,494.305298 1658.475098,495.591431 
	C1661.818970,500.500183 1665.007202,505.550659 1668.645996,510.252625 
	C1669.516602,511.377533 1671.856323,511.557678 1673.572998,511.802307 
	C1681.143799,512.880981 1688.739380,513.784790 1696.311890,514.851135 
	C1697.773682,515.057007 1699.337891,515.446777 1700.558472,516.219727 
	C1702.010498,517.139221 1704.342529,518.824585 1704.149536,519.712036 
	C1703.809570,521.275391 1702.021851,523.401306 1700.528931,523.692078 
	C1691.900391,525.372437 1683.215942,526.950745 1674.475952,527.788818 
	C1670.563843,528.164001 1668.068726,529.315552 1666.093018,532.621460 
	C1663.807617,536.445435 1661.109009,540.022522 1658.386353,544.004150 
	C1660.966309,545.253174 1663.197876,546.333496 1666.031616,547.705322 
	C1662.028809,552.388550 1656.952881,551.320679 1652.419678,552.838257 
z"/>
<path fill="#1C1C1C" opacity="1.000000" stroke="none" 
	d="
M224.654541,431.477783 
	C214.793198,415.967041 214.744415,400.457764 224.606140,385.649109 
	C234.402237,370.939026 248.949524,365.008453 266.250092,368.272644 
	C283.113708,371.454346 294.107452,382.001526 298.396606,398.744171 
	C301.245575,409.865143 299.552429,420.513641 293.260132,430.333160 
	C282.571899,447.012787 271.980652,463.754517 261.340393,480.464874 
	C260.547089,481.710815 259.687958,482.914825 258.500458,484.668427 
	C247.116989,466.771698 235.987900,449.274872 224.654541,431.477783 
M277.015320,421.365936 
	C277.591736,420.356903 278.250793,419.385651 278.731567,418.332916 
	C282.744354,409.546478 280.639557,399.292694 273.517914,392.767090 
	C266.542877,386.375824 256.247711,385.100281 248.030533,389.609344 
	C239.499237,394.290771 234.960312,403.616821 236.828110,413.133240 
	C238.590927,422.114777 244.038376,428.113617 252.813889,430.434631 
	C262.457703,432.985260 270.466797,429.819611 277.015320,421.365936 
z"/>
<path fill="#1D1D1D" opacity="1.000000" stroke="none" 
	d="
M256.489960,506.339081 
	C264.480743,506.200958 269.557495,509.669464 271.151123,516.008057 
	C272.680420,522.090881 269.819153,528.249451 264.197662,530.974609 
	C258.851074,533.566467 252.222397,532.074707 248.442902,527.429016 
	C242.300461,519.878784 245.980881,509.766327 256.489960,506.339081 
z"/>
<path fill="#303030" opacity="1.000000" stroke="none" 
	d="
M1475.008179,520.649658 
	C1475.525269,519.448303 1476.176636,517.864807 1476.938843,517.809448 
	C1480.585815,517.544617 1484.267212,517.602051 1487.925659,517.773621 
	C1488.656738,517.807861 1489.340942,518.839355 1490.046875,519.411011 
	C1489.357056,520.191956 1488.660400,521.650085 1487.978394,521.643433 
	C1483.714966,521.601501 1479.454834,521.232422 1475.008179,520.649658 
z"/>
<path fill="#303030" opacity="1.000000" stroke="none" 
	d="
M1459.915039,517.684387 
	C1463.255371,518.992249 1463.029297,521.047485 1460.331665,521.554016 
	C1456.634399,522.248291 1452.704224,521.860413 1448.891113,521.638916 
	C1448.183472,521.597839 1447.557617,520.151428 1446.893921,519.353516 
	C1447.611450,518.802856 1448.306641,517.814331 1449.050537,517.776306 
	C1452.537354,517.597900 1456.037354,517.680969 1459.915039,517.684387 
z"/>
<path fill="#303030" opacity="1.000000" stroke="none" 
	d="
M1286.197021,517.668152 
	C1288.622559,517.670166 1290.638306,517.487732 1292.592529,517.755432 
	C1293.503052,517.880066 1294.293945,518.877136 1295.139160,519.478760 
	C1294.265015,520.255737 1293.443237,521.618652 1292.506958,521.702515 
	C1289.380615,521.982788 1286.194946,521.997498 1283.071045,521.701294 
	C1281.935059,521.593567 1280.908936,520.325928 1279.832764,519.587402 
	C1280.979858,518.947571 1282.076782,518.174500 1283.292725,517.717957 
	C1284.019653,517.445007 1284.932739,517.667969 1286.197021,517.668152 
z"/>
<path fill="#303030" opacity="1.000000" stroke="none" 
	d="
M1084.964600,519.946411 
	C1087.695557,518.955750 1090.460083,517.882141 1093.253418,517.801331 
	C1095.561890,517.734619 1097.904297,518.841248 1100.231689,519.427917 
	C1099.087646,523.642395 1095.646240,521.622925 1093.280396,521.676270 
	C1090.535522,521.738098 1087.768311,520.798218 1084.964600,519.946411 
z"/>
<path fill="#303030" opacity="1.000000" stroke="none" 
	d="
M960.794556,518.621704 
	C960.174011,519.885864 959.445740,521.593323 958.565674,521.675476 
	C955.141479,521.995361 951.660950,521.926270 948.220337,521.705811 
	C947.366394,521.651062 946.583679,520.485046 945.768188,519.829834 
	C946.651001,519.113098 947.530273,517.788757 948.417236,517.783630 
	C952.482666,517.759888 956.550293,518.105469 960.794556,518.621704 
z"/>
<path fill="#303030" opacity="1.000000" stroke="none" 
	d="
M784.332886,517.660645 
	C787.089050,517.671936 789.434937,517.503845 791.727417,517.779480 
	C792.572754,517.881104 793.292236,519.028931 794.069092,519.699585 
	C793.447571,520.379456 792.853699,521.614868 792.199768,521.647522 
	C788.391235,521.837646 784.564331,521.840027 780.754883,521.662964 
	C780.057739,521.630554 779.412537,520.479431 778.743286,519.844788 
	C779.466492,519.129883 780.075562,518.149170 780.945374,517.775879 
	C781.791809,517.412659 782.905273,517.671509 784.332886,517.660645 
z"/>
<path fill="#303030" opacity="1.000000" stroke="none" 
	d="
M593.690002,521.812622 
	C591.261230,521.809998 589.229248,522.045593 587.291382,521.720398 
	C586.069214,521.515259 584.987793,520.471436 583.843262,519.803772 
	C585.074219,519.091125 586.249084,517.921387 587.547913,517.762024 
	C590.164429,517.440857 592.865417,517.493958 595.497131,517.748474 
	C596.744934,517.869141 597.913574,518.807983 599.118103,519.376099 
	C597.952332,520.188721 596.819641,521.057190 595.600708,521.780090 
	C595.232361,521.998596 594.624695,521.813660 593.690002,521.812622 
z"/>
<path fill="#303030" opacity="1.000000" stroke="none" 
	d="
M758.063477,521.808105 
	C755.362854,521.079285 753.104675,520.350281 750.846436,519.621277 
	C753.144775,518.970032 755.412781,518.154114 757.751831,517.724487 
	C759.356750,517.429749 761.106445,517.436707 762.704834,517.750305 
	C763.936218,517.991882 765.032776,518.920227 766.189331,519.543152 
	C764.955688,520.298645 763.803711,521.320312 762.464355,521.730896 
	C761.251038,522.102905 759.833435,521.808594 758.063477,521.808105 
z"/>
<path fill="#303030" opacity="1.000000" stroke="none" 
	d="
M924.212280,517.668457 
	C926.636780,517.670044 928.652527,517.490845 930.609070,517.753174 
	C931.528137,517.876526 932.333130,518.850037 933.189819,519.438171 
	C932.338074,520.225830 931.541077,521.608521 930.624573,521.692810 
	C927.497375,521.980530 924.310181,522.005005 921.184265,521.715759 
	C920.023010,521.608276 918.967651,520.357056 917.864014,519.627380 
	C919.005920,518.976013 920.096130,518.190063 921.309265,517.724060 
	C922.032898,517.446106 922.949402,517.670166 924.212280,517.668457 
z"/>
<path fill="#303030" opacity="1.000000" stroke="none" 
	d="
M1120.920654,517.675537 
	C1123.608032,518.367493 1125.860229,519.057678 1128.112427,519.747925 
	C1125.821655,520.434937 1123.561523,521.270508 1121.228638,521.754150 
	C1119.797485,522.050781 1118.193359,522.067810 1116.779175,521.734619 
	C1115.383667,521.405884 1114.129272,520.477905 1112.812988,519.812866 
	C1114.043701,519.097107 1115.199951,518.123291 1116.526611,517.741333 
	C1117.751099,517.388794 1119.158569,517.671082 1120.920654,517.675537 
z"/>
<path fill="#303030" opacity="1.000000" stroke="none" 
	d="
M900.522949,517.667847 
	C902.424011,518.315002 903.902771,518.961792 905.381470,519.608643 
	C903.956665,520.341431 902.587280,521.526794 901.095154,521.709229 
	C898.311401,522.049622 895.435364,522.001038 892.642639,521.699158 
	C891.702759,521.597656 890.899170,520.236084 890.033264,519.450439 
	C890.896057,518.863586 891.718018,517.859558 892.629517,517.770325 
	C895.099548,517.528503 897.607544,517.674988 900.522949,517.667847 
z"/>
<path fill="#303030" opacity="1.000000" stroke="none" 
	d="
M807.377319,521.225159 
	C805.723572,518.334717 807.305054,517.727478 809.484863,517.688110 
	C812.650024,517.630920 815.829285,517.513000 818.976013,517.759705 
	C820.010864,517.840881 820.963257,518.973694 821.953430,519.625549 
	C821.011108,520.352234 820.089417,521.667969 819.122864,521.701843 
	C815.319397,521.835205 811.501709,521.565308 807.377319,521.225159 
z"/>
<path fill="#303030" opacity="1.000000" stroke="none" 
	d="
M424.053406,517.673523 
	C426.979614,518.565430 430.575500,515.641113 432.094696,519.878967 
	C429.600006,520.524170 427.131256,521.317261 424.601227,521.761108 
	C422.992340,522.043396 421.236206,522.062500 419.653290,521.713440 
	C418.602325,521.481689 417.740784,520.390808 416.794434,519.684509 
	C417.741425,519.010986 418.604706,518.031616 419.657166,517.743652 
	C420.891083,517.406067 422.289581,517.669983 424.053406,517.673523 
z"/>
<path fill="#303030" opacity="1.000000" stroke="none" 
	d="
M391.872925,521.809082 
	C390.646118,520.999573 389.814911,520.192444 388.983704,519.385315 
	C389.859528,518.807007 390.709137,517.783447 391.615875,517.729980 
	C394.928497,517.534851 398.272614,517.506531 401.576660,517.769775 
	C402.511169,517.844238 403.349457,519.126770 404.231873,519.855286 
	C403.402252,520.500427 402.609009,521.637817 401.736542,521.702271 
	C398.595001,521.934204 395.426727,521.804443 391.872925,521.809082 
z"/>
<path fill="#303030" opacity="1.000000" stroke="none" 
	d="
M283.281647,521.808228 
	C281.687286,521.774719 280.437500,521.995483 279.400665,521.623169 
	C278.644775,521.351746 277.694427,520.288818 277.708313,519.596375 
	C277.721191,518.954224 278.874634,517.823059 279.566132,517.791504 
	C283.374817,517.617981 287.200226,517.623596 291.008575,517.805237 
	C291.691376,517.837891 292.321198,518.981384 292.975464,519.612000 
	C292.212921,520.333130 291.517303,521.566833 290.674957,521.676758 
	C288.389038,521.975281 286.040955,521.797363 283.281647,521.808228 
z"/>
<path fill="#303030" opacity="1.000000" stroke="none" 
	d="
M1420.476807,517.848450 
	C1424.328003,517.713318 1427.828857,517.549316 1431.308105,517.754395 
	C1432.345703,517.815491 1433.322144,518.910645 1434.326660,519.532043 
	C1433.428345,520.289185 1432.577148,521.621155 1431.623169,521.699402 
	C1428.318237,521.970276 1424.961548,522.005615 1421.656128,521.738892 
	C1419.248657,521.544495 1417.677368,520.419128 1420.476807,517.848450 
z"/>
<path fill="#303030" opacity="1.000000" stroke="none" 
	d="
M1322.986572,519.294495 
	C1321.630493,520.362915 1320.082275,521.866882 1318.811401,521.660889 
	C1315.094116,521.058105 1308.466064,524.218018 1308.319336,519.565247 
	C1308.191406,515.506287 1314.906982,518.485168 1318.505371,517.779907 
	C1319.849365,517.516479 1321.442017,518.521851 1322.986572,519.294495 
z"/>
<path fill="#303030" opacity="1.000000" stroke="none" 
	d="
M373.190002,517.666382 
	C374.527252,518.354919 375.462433,519.041016 376.397644,519.727051 
	C375.433746,520.424011 374.512878,521.637146 373.497955,521.721741 
	C370.361816,521.983215 367.176514,521.977356 364.039337,521.720642 
	C362.999847,521.635620 362.048340,520.475281 361.056641,519.806519 
	C362.141449,519.092529 363.173248,517.885803 364.321594,517.762268 
	C367.114929,517.461792 369.962372,517.664185 373.190002,517.666382 
z"/>
<path fill="#303030" opacity="1.000000" stroke="none" 
	d="
M1262.571167,521.807617 
	C1259.982666,521.808289 1257.779419,522.075439 1255.685425,521.712280 
	C1254.359741,521.482361 1253.196777,520.313232 1251.960815,519.565369 
	C1253.288330,518.932800 1254.567139,517.935059 1255.954346,517.750183 
	C1258.236694,517.446106 1260.623169,517.429016 1262.900024,517.752808 
	C1264.426880,517.970032 1265.840210,518.985291 1267.304321,519.643433 
	C1265.870483,520.364685 1264.436523,521.085938 1262.571167,521.807617 
z"/>
<path fill="#303030" opacity="1.000000" stroke="none" 
	d="
M1230.172607,517.664429 
	C1232.768799,517.674561 1234.947876,517.498352 1237.064331,517.785156 
	C1237.942505,517.904175 1238.686768,519.012390 1239.491943,519.670715 
	C1238.706299,520.373962 1237.960327,521.623840 1237.128052,521.684265 
	C1233.831665,521.923279 1230.497803,521.939758 1227.201050,521.708069 
	C1226.139648,521.633545 1225.149902,520.541931 1224.127319,519.915527 
	C1225.166504,519.168823 1226.133301,518.267944 1227.272095,517.733215 
	C1227.952148,517.413818 1228.901733,517.668396 1230.172607,517.664429 
z"/>
<path fill="#303030" opacity="1.000000" stroke="none" 
	d="
M1152.315186,521.810425 
	C1148.912964,521.799255 1145.910522,521.941528 1142.944092,521.678162 
	C1142.112183,521.604309 1141.386230,520.336914 1140.611694,519.617065 
	C1141.432373,518.974609 1142.217041,517.841064 1143.080200,517.777832 
	C1146.218872,517.547852 1149.398315,517.500916 1152.531616,517.758606 
	C1153.727905,517.856995 1154.841553,518.962646 1155.992798,519.609253 
	C1154.904785,520.342896 1153.816772,521.076538 1152.315186,521.810425 
z"/>
<path fill="#303030" opacity="1.000000" stroke="none" 
	d="
M446.274841,517.788818 
	C450.144135,517.693787 453.646515,517.538513 457.122955,517.771240 
	C458.118927,517.837830 459.039856,519.026489 459.995209,519.700684 
	C459.039948,520.401062 458.125305,521.628174 457.122040,521.705505 
	C453.815796,521.960205 450.454285,522.038330 447.158844,521.720215 
	C444.593079,521.472595 443.397797,520.115723 446.274841,517.788818 
z"/>
<path fill="#303030" opacity="1.000000" stroke="none" 
	d="
M730.987061,517.666626 
	C733.725464,518.313599 736.029114,518.959900 738.332764,519.606201 
	C736.086548,520.340332 733.883850,521.310181 731.580627,521.735718 
	C729.657959,522.091003 727.571533,522.058228 725.648315,521.704407 
	C724.668152,521.524048 723.887451,520.259460 723.016602,519.484985 
	C723.871521,518.880737 724.662231,517.919556 725.595703,517.751465 
	C727.200989,517.462524 728.895325,517.667969 730.987061,517.666626 
z"/>
<path fill="#303030" opacity="1.000000" stroke="none" 
	d="
M613.170288,521.610779 
	C610.948792,519.594910 611.253174,517.991333 613.848694,517.762878 
	C617.480774,517.443298 621.170715,517.576965 624.818298,517.801819 
	C625.588684,517.849365 626.283203,519.128784 627.012634,519.840576 
	C626.178833,520.490356 625.373535,521.652466 624.506226,521.700806 
	C620.856873,521.904114 617.189026,521.774658 613.170288,521.610779 
z"/>
<path fill="#303030" opacity="1.000000" stroke="none" 
	d="
M528.557861,518.525085 
	C532.922119,518.036133 537.035706,517.777039 541.150391,517.758423 
	C541.894531,517.755066 542.881775,518.601379 543.294495,519.320740 
	C543.518616,519.711426 542.757202,521.272400 542.460266,521.266663 
	C537.789490,521.177002 533.121277,520.928284 528.458740,520.620911 
	C528.369568,520.615051 528.356262,519.457581 528.557861,518.525085 
z"/>
<path fill="#303030" opacity="1.000000" stroke="none" 
	d="
M560.587280,517.670166 
	C563.497192,517.670837 566.009644,517.479675 568.465942,517.767517 
	C569.470215,517.885132 570.353027,519.039429 571.291077,519.722168 
	C570.332214,520.415222 569.422852,521.604492 568.405029,521.705933 
	C565.610718,521.984375 562.748840,522.015015 559.958496,521.719849 
	C558.579102,521.573914 557.298462,520.494324 555.973145,519.837158 
	C557.371155,519.115112 558.769165,518.393066 560.587280,517.670166 
z"/>
<path fill="#303030" opacity="1.000000" stroke="none" 
	d="
M679.296631,517.669678 
	C680.695129,518.471924 681.678833,519.272705 682.662476,520.073486 
	C681.757751,520.647461 680.879761,521.659241 679.943420,521.716309 
	C676.633606,521.918213 673.289978,521.960815 669.990356,521.687134 
	C669.042847,521.608582 668.200806,520.259277 667.310364,519.492676 
	C668.177490,518.889221 669.010315,517.834290 669.917908,517.765381 
	C672.891296,517.539795 675.891785,517.672913 679.296631,517.669678 
z"/>
<path fill="#303030" opacity="1.000000" stroke="none" 
	d="
M1540.614868,517.661133 
	C1542.613892,518.393433 1544.183716,519.127625 1545.753662,519.861755 
	C1544.245117,520.510376 1542.778931,521.554443 1541.218872,521.720947 
	C1538.427734,522.018738 1535.565430,521.945557 1532.764771,521.684509 
	C1531.895264,521.603394 1531.129028,520.413391 1530.315430,519.731079 
	C1531.113647,519.051697 1531.857178,517.882324 1532.720459,517.786011 
	C1535.182861,517.511108 1537.693848,517.672974 1540.614868,517.661133 
z"/>
<path fill="#303030" opacity="1.000000" stroke="none" 
	d="
M1507.430420,517.668762 
	C1510.342529,517.675354 1512.844727,517.525269 1515.307373,517.771118 
	C1516.214233,517.861572 1517.027832,518.886536 1517.883911,519.485291 
	C1517.006104,520.255920 1516.189209,521.588318 1515.239136,521.691223 
	C1512.453491,521.992859 1509.584717,522.051086 1506.809082,521.710571 
	C1505.318481,521.527771 1503.952271,520.330933 1502.529907,519.591675 
	C1504.021606,518.950745 1505.513306,518.309875 1507.430420,517.668762 
z"/>
<path fill="#303030" opacity="1.000000" stroke="none" 
	d="
M307.814880,521.783936 
	C306.761383,520.948364 306.114441,520.137756 305.467468,519.327148 
	C306.367218,518.777649 307.242462,517.808655 308.171204,517.754272 
	C311.484253,517.560425 314.822998,517.555054 318.135040,517.756775 
	C319.042053,517.812012 319.889801,518.840881 320.764709,519.422974 
	C319.907898,520.215027 319.102478,521.612366 318.185059,521.690308 
	C314.884277,521.970581 311.545685,521.805664 307.814880,521.783936 
z"/>
<path fill="#303030" opacity="1.000000" stroke="none" 
	d="
M348.556519,519.259399 
	C346.644257,521.760620 335.714600,522.984070 334.091675,521.024963 
	C333.673218,520.519897 334.651276,517.909302 334.926880,517.919434 
	C339.437134,518.085632 343.937622,518.517395 348.556519,519.259399 
z"/>
<path fill="#303030" opacity="1.000000" stroke="none" 
	d="
M708.068481,517.679443 
	C709.143311,518.462952 709.816223,519.234741 710.489075,520.006592 
	C709.769958,520.592285 709.073120,521.648743 708.327942,521.683960 
	C704.681030,521.856445 701.013306,521.883240 697.372437,521.653076 
	C696.589539,521.603638 695.887207,520.278564 695.147766,519.541077 
	C695.996948,518.922668 696.814880,517.829041 697.700989,517.770691 
	C701.010742,517.552612 704.342834,517.673828 708.068481,517.679443 
z"/>
<path fill="#303030" opacity="1.000000" stroke="none" 
	d="
M1404.159912,521.779663 
	C1400.431519,521.798401 1397.096313,521.956482 1393.798218,521.677917 
	C1392.864380,521.599060 1392.038208,520.245056 1391.162720,519.475830 
	C1392.029297,518.879944 1392.866577,517.827576 1393.767578,517.769897 
	C1397.075562,517.558228 1400.411255,517.560486 1403.721802,517.745911 
	C1404.657227,517.798340 1405.542236,518.750122 1406.450439,519.289429 
	C1405.822632,520.110718 1405.194946,520.932129 1404.159912,521.779663 
z"/>
<path fill="#303030" opacity="1.000000" stroke="none" 
	d="
M1364.322876,518.046753 
	C1368.325806,517.789917 1371.986206,517.591614 1375.629883,517.758484 
	C1376.681274,517.806641 1377.684326,518.905090 1378.709595,519.521973 
	C1377.812988,520.278015 1376.963501,521.608032 1376.011230,521.686279 
	C1372.706543,521.957886 1369.359253,521.924683 1366.041748,521.750183 
	C1363.925293,521.638794 1362.345947,520.775146 1364.322876,518.046753 
z"/>
<path fill="#303030" opacity="1.000000" stroke="none" 
	d="
M1342.142334,517.666504 
	C1344.404541,517.674683 1346.275146,517.447083 1348.039307,517.781311 
	C1349.074097,517.977417 1349.939209,519.067932 1350.880737,519.756104 
	C1349.897461,520.441406 1348.958984,521.624268 1347.922485,521.717529 
	C1344.958862,521.984375 1341.937500,521.997253 1338.976196,521.716370 
	C1337.755493,521.600525 1336.630127,520.479614 1335.461426,519.815796 
	C1336.546875,519.099976 1337.557373,518.188354 1338.742920,517.733582 
	C1339.611328,517.400452 1340.709839,517.667236 1342.142334,517.666504 
z"/>
<path fill="#303030" opacity="1.000000" stroke="none" 
	d="
M1203.992188,517.667725 
	C1205.596924,517.668335 1206.847656,517.395020 1207.897705,517.737549 
	C1209.236572,518.174255 1210.413086,519.108704 1211.659668,519.828552 
	C1210.492676,520.488647 1209.371216,521.593811 1208.149536,521.718872 
	C1205.357666,522.004517 1202.495483,522.012939 1199.705811,521.718018 
	C1198.489746,521.589417 1197.381714,520.439392 1196.224609,519.753235 
	C1197.338623,519.057922 1198.374634,518.087769 1199.588257,517.744019 
	C1200.817139,517.395935 1202.221558,517.667419 1203.992188,517.667725 
z"/>
<path fill="#303030" opacity="1.000000" stroke="none" 
	d="
M835.257080,521.273193 
	C835.548279,519.917664 836.065308,517.911133 836.768250,517.843750 
	C840.230347,517.511719 843.749146,517.570618 847.230530,517.780457 
	C848.111389,517.833618 848.928345,518.947021 849.774658,519.573242 
	C848.853577,520.318787 847.957397,521.664917 847.007019,521.704224 
	C843.203369,521.862000 839.382812,521.614075 835.257080,521.273193 
z"/>
<path fill="#303030" opacity="1.000000" stroke="none" 
	d="
M649.706421,521.809814 
	C646.768433,521.796692 644.258606,521.963684 641.802795,521.673828 
	C640.941956,521.572144 640.213684,520.347595 639.424866,519.635803 
	C640.251038,518.985168 641.033997,517.851440 641.911255,517.773132 
	C644.710449,517.523193 647.567139,517.450012 650.356567,517.740601 
	C651.909912,517.902466 653.373901,518.922180 654.878174,519.555298 
	C653.304077,520.306885 651.730042,521.058533 649.706421,521.809814 
z"/>
<path fill="#303030" opacity="1.000000" stroke="none" 
	d="
M874.255005,517.664551 
	C875.639099,518.336182 876.614136,519.004211 877.589233,519.672180 
	C876.629944,520.384949 875.711792,521.634705 874.703735,521.711914 
	C871.402832,521.964661 868.060120,521.922485 864.754211,521.693848 
	C863.861816,521.632141 863.043030,520.507812 862.190430,519.871216 
	C863.086487,519.142456 863.931396,517.875977 864.888184,517.785034 
	C867.851318,517.503296 870.856873,517.668884 874.255005,517.664551 
z"/>
<path fill="#303030" opacity="1.000000" stroke="none" 
	d="
M1037.889771,521.808228 
	C1034.712524,520.976379 1030.988403,523.823730 1029.192871,519.569397 
	C1031.858276,518.935608 1034.506470,518.208069 1037.196777,517.708801 
	C1038.478516,517.471008 1039.906494,517.415283 1041.148193,517.738342 
	C1042.395508,518.062927 1043.493408,518.960815 1044.656860,519.607483 
	C1043.546265,520.341003 1042.511475,521.268127 1041.299438,521.742615 
	C1040.437256,522.080200 1039.336426,521.808167 1037.889771,521.808228 
z"/>
<path fill="#303030" opacity="1.000000" stroke="none" 
	d="
M1015.004517,517.757019 
	C1017.691650,519.433777 1017.232056,521.260742 1014.890503,521.577271 
	C1011.136230,522.084717 1007.262085,521.832520 1003.449036,521.664001 
	C1002.743164,521.632812 1002.086914,520.479980 1001.407715,519.844849 
	C1002.147644,519.127625 1002.852783,517.838135 1003.633362,517.790771 
	C1007.278625,517.569214 1010.944641,517.690430 1015.004517,517.757019 
z"/>
<path fill="#303030" opacity="1.000000" stroke="none" 
	d="
M515.285400,520.731384 
	C510.793213,521.278687 506.535675,521.594055 502.274963,521.644348 
	C501.608185,521.652222 500.663483,520.558289 500.358612,519.774841 
	C500.194275,519.352539 501.109772,517.944763 501.545502,517.941406 
	C505.994995,517.906982 510.447906,518.034729 514.891541,518.272461 
	C515.138123,518.285583 515.311523,519.667419 515.285400,520.731384 
z"/>
<path fill="#303030" opacity="1.000000" stroke="none" 
	d="
M1179.492554,517.678955 
	C1181.235596,518.337341 1182.548950,518.992249 1183.862427,519.647156 
	C1182.576416,520.370605 1181.341187,521.577148 1179.994019,521.718628 
	C1177.038940,522.028931 1174.008423,521.984192 1171.049683,521.682678 
	C1170.116089,521.587585 1169.312622,520.215271 1168.449585,519.427368 
	C1169.330688,518.841553 1170.175049,517.830505 1171.099854,517.750610 
	C1173.736694,517.522644 1176.406250,517.673645 1179.492554,517.678955 
z"/>
<path fill="#303030" opacity="1.000000" stroke="none" 
	d="
M1072.087646,520.696167 
	C1067.634644,521.266724 1063.384033,521.595276 1059.129150,521.662109 
	C1058.461914,521.672668 1057.519409,520.600525 1057.201660,519.825073 
	C1057.030518,519.407410 1057.907227,517.994446 1058.324585,517.988525 
	C1062.766724,517.926331 1067.213135,518.021179 1071.651123,518.228455 
	C1071.896362,518.239868 1072.077515,519.623230 1072.087646,520.696167 
z"/>
<path fill="#303030" opacity="1.000000" stroke="none" 
	d="
M988.503479,518.519287 
	C987.998535,519.817383 987.304138,521.567566 986.452820,521.647583 
	C982.997437,521.972290 979.485657,521.914001 976.014099,521.692078 
	C975.167603,521.637939 974.394958,520.426392 973.588379,519.747009 
	C974.359985,519.062988 975.126343,517.798828 975.903992,517.791870 
	C980.015076,517.754700 984.128906,518.033997 988.503479,518.519287 
z"/>
<path fill="#303030" opacity="1.000000" stroke="none" 
	d="
M474.041626,521.625793 
	C471.658875,519.721558 471.998657,518.074951 474.535522,517.809692 
	C478.154755,517.431396 481.849884,517.591064 485.496185,517.803284 
	C486.317322,517.851074 487.070587,519.064331 487.855103,519.741028 
	C487.037476,520.419983 486.250214,521.636353 485.396912,521.684570 
	C481.751526,521.890930 478.086700,521.752380 474.041626,521.625793 
z"/>
<path fill="#303030" opacity="1.000000" stroke="none" 
	d="
M1563.036987,517.665771 
	C1564.870117,517.844116 1566.354126,517.882690 1567.723633,518.298584 
	C1568.075439,518.405396 1568.066162,519.701355 1568.222778,520.451050 
	C1565.930420,520.902222 1563.649048,521.588013 1561.340576,521.696228 
	C1560.328125,521.743652 1559.260620,520.612915 1558.218018,520.017212 
	C1558.712036,519.278809 1559.050293,518.224121 1559.740479,517.884521 
	C1560.548828,517.486694 1561.663452,517.711548 1563.036987,517.665771 
z"/>
<path fill="#FCFCFC" opacity="1.000000" stroke="none" 
	d="
M276.822632,421.679260 
	C270.466797,429.819611 262.457703,432.985260 252.813889,430.434631 
	C244.038376,428.113617 238.590927,422.114777 236.828110,413.133240 
	C234.960312,403.616821 239.499237,394.290771 248.030533,389.609344 
	C256.247711,385.100281 266.542877,386.375824 273.517914,392.767090 
	C280.639557,399.292694 282.744354,409.546478 278.731567,418.332916 
	C278.250793,419.385651 277.591736,420.356903 276.822632,421.679260 
z"/>
</svg>